<?xml version="1.0" encoding="UTF-8" standalone="no"?>
<!DOCTYPE svg PUBLIC "-//W3C//DTD SVG 1.1//EN"
 "http://www.w3.org/Graphics/SVG/1.1/DTD/svg11.dtd">
<!-- Generated by graphviz version 13.1.2 (20250808.2320)
 -->
<!-- Title: buffer_state_machine Pages: 1 -->
<svg width="786pt" height="564pt"
 viewBox="0.00 0.00 786.00 564.00" xmlns="http://www.w3.org/2000/svg" xmlns:xlink="http://www.w3.org/1999/xlink">
<g id="graph0" class="graph" transform="scale(1 1) rotate(0) translate(4 560)">
<title>buffer_state_machine</title>
<polygon fill="white" stroke="none" points="-4,4 -4,-560 782.15,-560 782.15,4 -4,4"/>
<g id="clust1" class="cluster">
<title>cluster_empty</title>
<path fill="#fce8e8" stroke="#ea9999" stroke-width="2" d="M259.85,-448C259.85,-448 589.42,-448 589.42,-448 595.42,-448 601.42,-454 601.42,-460 601.42,-460 601.42,-536 601.42,-536 601.42,-542 595.42,-548 589.42,-548 589.42,-548 259.85,-548 259.85,-548 253.85,-548 247.85,-542 247.85,-536 247.85,-536 247.85,-460 247.85,-460 247.85,-454 253.85,-448 259.85,-448"/>
<text xml:space="preserve" text-anchor="middle" x="424.64" y="-533.55" font-family="Helvetica,sans-Serif" font-size="11.00">EMPTY</text>
<text xml:space="preserve" text-anchor="middle" x="424.64" y="-520.05" font-family="Helvetica,sans-Serif" font-size="11.00">mult = 1 + safety_gain</text>
</g>
<g id="clust2" class="cluster">
<title>cluster_empty_middle</title>
<path fill="#fef3e8" stroke="#f9cb9c" stroke-width="2" d="M262.47,-116C262.47,-116 366.07,-116 366.07,-116 372.07,-116 378.07,-122 378.07,-128 378.07,-128 378.07,-191 378.07,-191 378.07,-197 372.07,-203 366.07,-203 366.07,-203 262.47,-203 262.47,-203 256.47,-203 250.47,-197 250.47,-191 250.47,-191 250.47,-128 250.47,-128 250.47,-122 256.47,-116 262.47,-116"/>
<text xml:space="preserve" text-anchor="middle" x="314.27" y="-188.55" font-family="Helvetica,sans-Serif" font-size="11.00">EMPTY_MIDDLE</text>
<text xml:space="preserve" text-anchor="middle" x="314.27" y="-175.05" font-family="Helvetica,sans-Serif" font-size="11.00">mult = 1 + drift_gain</text>
</g>
<g id="clust3" class="cluster">
<title>cluster_middle</title>
<path fill="#eaf5e6" stroke="#b6d7a8" stroke-width="2" d="M502.37,-213C502.37,-213 598.62,-213 598.62,-213 604.62,-213 610.62,-219 610.62,-225 610.62,-225 610.62,-288 610.62,-288 610.62,-294 604.62,-300 598.62,-300 598.62,-300 502.37,-300 502.37,-300 496.37,-300 490.37,-294 490.37,-288 490.37,-288 490.37,-225 490.37,-225 490.37,-219 496.37,-213 502.37,-213"/>
<text xml:space="preserve" text-anchor="middle" x="550.5" y="-285.55" font-family="Helvetica,sans-Serif" font-size="11.00">MIDDLE (dead&#45;band)</text>
<text xml:space="preserve" text-anchor="middle" x="550.5" y="-272.05" font-family="Helvetica,sans-Serif" font-size="11.00">mult = 1.00</text>
</g>
<g id="clust4" class="cluster">
<title>cluster_full_middle</title>
<path fill="#fef3e8" stroke="#f9cb9c" stroke-width="2" d="M264.35,-299C264.35,-299 364.2,-299 364.2,-299 370.2,-299 376.2,-305 376.2,-311 376.2,-311 376.2,-374 376.2,-374 376.2,-380 370.2,-386 364.2,-386 364.2,-386 264.35,-386 264.35,-386 258.35,-386 252.35,-380 252.35,-374 252.35,-374 252.35,-311 252.35,-311 252.35,-305 258.35,-299 264.35,-299"/>
<text xml:space="preserve" text-anchor="middle" x="314.27" y="-371.55" font-family="Helvetica,sans-Serif" font-size="11.00">FULL_MIDDLE</text>
<text xml:space="preserve" text-anchor="middle" x="314.27" y="-358.05" font-family="Helvetica,sans-Serif" font-size="11.00">mult = 1 − drift_gain</text>
</g>
<g id="clust5" class="cluster">
<title>cluster_full</title>
<path fill="#fce8e8" stroke="#ea9999" stroke-width="2" d="M20,-8C20,-8 594.67,-8 594.67,-8 600.67,-8 606.67,-14 606.67,-20 606.67,-20 606.67,-96 606.67,-96 606.67,-102 600.67,-108 594.67,-108 594.67,-108 20,-108 20,-108 14,-108 8,-102 8,-96 8,-96 8,-20 8,-20 8,-14 14,-8 20,-8"/>
<text xml:space="preserve" text-anchor="middle" x="307.34" y="-93.55" font-family="Helvetica,sans-Serif" font-size="11.00">FULL</text>
<text xml:space="preserve" text-anchor="middle" x="307.34" y="-80.05" font-family="Helvetica,sans-Serif" font-size="11.00">mult = 1 − safety_gain</text>
</g>
<!-- e_safety -->
<g id="node1" class="node">
<title>e_safety</title>
<polygon fill="#f4cccc" stroke="black" points="372.7,-492 255.85,-492 255.85,-456 372.7,-456 372.7,-492"/>
<text xml:space="preserve" text-anchor="start" x="292.9" y="-474.5" font-family="Helvetica,sans-Serif" font-size="10.00">SYNCED</text>
<text xml:space="preserve" text-anchor="start" x="266.65" y="-466.4" font-family="Helvetica,sans-Serif" font-size="8.00">mult 1.05 → deliver MORE</text>
</g>
<!-- e_escal -->
<g id="node2" class="node">
<title>e_escal</title>
<polygon fill="#e06666" stroke="black" points="593.42,-505 506.57,-505 506.57,-469 593.42,-469 593.42,-505"/>
<text xml:space="preserve" text-anchor="start" x="528.62" y="-487.5" font-family="Helvetica,sans-Serif" font-size="10.00">SYNCED</text>
<text xml:space="preserve" text-anchor="start" x="517.37" y="-479.4" font-family="Helvetica,sans-Serif" font-size="8.00">ESCALATED ×1.5</text>
</g>
<!-- e_safety&#45;&gt;e_escal -->
<g id="edge1" class="edge">
<title>e_safety&#45;&gt;e_escal</title>
<path fill="none" stroke="black" d="M373.05,-477.21C410.25,-479.28 458.3,-481.96 494.78,-483.98"/>
<polygon fill="black" stroke="black" points="494.5,-487.47 504.68,-484.53 494.89,-480.48 494.5,-487.47"/>
<text xml:space="preserve" text-anchor="middle" x="436.07" y="-493.95" font-family="Helvetica,sans-Serif" font-size="8.00">fault_escalation</text>
<text xml:space="preserve" text-anchor="middle" x="436.07" y="-484.2" font-family="Helvetica,sans-Serif" font-size="8.00">_time elapsed</text>
</g>
<!-- em_drift -->
<g id="node3" class="node">
<title>em_drift</title>
<polygon fill="#fce5cd" stroke="black" points="370.07,-160 258.47,-160 258.47,-124 370.07,-124 370.07,-160"/>
<text xml:space="preserve" text-anchor="start" x="292.9" y="-142.5" font-family="Helvetica,sans-Serif" font-size="10.00">SYNCED</text>
<text xml:space="preserve" text-anchor="start" x="269.27" y="-134.4" font-family="Helvetica,sans-Serif" font-size="8.00">mult 1.02 → slight MORE</text>
</g>
<!-- e_safety&#45;&gt;em_drift -->
<g id="edge5" class="edge">
<title>e_safety&#45;&gt;em_drift</title>
<path fill="none" stroke="black" stroke-dasharray="5,2" d="M292.5,-455.7C265.14,-431.07 219.64,-384.37 202.34,-332.75 180.95,-268.95 241.3,-203.11 281.5,-167.92"/>
<polygon fill="black" stroke="black" points="283.74,-170.61 289.08,-161.46 279.2,-165.28 283.74,-170.61"/>
<text xml:space="preserve" text-anchor="middle" x="192.47" y="-325.15" font-family="Helvetica,sans-Serif" font-size="8.00">empty</text>
<text xml:space="preserve" text-anchor="middle" x="192.47" y="-315.4" font-family="Helvetica,sans-Serif" font-size="8.00">clears</text>
</g>
<!-- m_neutral -->
<g id="node4" class="node">
<title>m_neutral</title>
<polygon fill="#d9ead3" stroke="black" points="600.55,-257 499.45,-257 499.45,-221 600.55,-221 600.55,-257"/>
<text xml:space="preserve" text-anchor="start" x="528.62" y="-239.5" font-family="Helvetica,sans-Serif" font-size="10.00">SYNCED</text>
<text xml:space="preserve" text-anchor="start" x="510.25" y="-231.4" font-family="Helvetica,sans-Serif" font-size="8.00">mult 1.00 → 1:1 follow</text>
</g>
<!-- e_safety&#45;&gt;m_neutral -->
<g id="edge6" class="edge">
<title>e_safety&#45;&gt;m_neutral</title>
<path fill="none" stroke="black" stroke-dasharray="5,2" d="M336.74,-455.61C355.63,-439.46 383.92,-415.34 408.7,-394.5 432.92,-374.14 441.44,-371.73 463.45,-349 488.63,-322.99 513.6,-289.81 530,-266.72"/>
<polygon fill="black" stroke="black" points="532.73,-268.93 535.62,-258.74 527,-264.91 532.73,-268.93"/>
<text xml:space="preserve" text-anchor="middle" x="436.07" y="-406.4" font-family="Helvetica,sans-Serif" font-size="8.00">middle</text>
<text xml:space="preserve" text-anchor="middle" x="436.07" y="-396.65" font-family="Helvetica,sans-Serif" font-size="8.00">triggers</text>
</g>
<!-- ERROR -->
<g id="node9" class="node">
<title>ERROR</title>
<polygon fill="#f4cccc" stroke="black" points="778.15,-462 719.8,-462 719.8,-426 778.15,-426 778.15,-462"/>
<text xml:space="preserve" text-anchor="middle" x="748.97" y="-440.5" font-family="Helvetica,sans-Serif" font-size="10.00">ERROR</text>
</g>
<!-- e_safety&#45;&gt;ERROR -->
<g id="edge16" class="edge">
<title>e_safety&#45;&gt;ERROR</title>
<path fill="none" stroke="#cc0000" stroke-width="2" d="M373.12,-457.98C406.99,-449.43 450.77,-439.8 490.37,-435.5 543.51,-429.73 557.21,-433.85 610.62,-435.5 643.39,-436.51 680.48,-438.88 707.86,-440.86"/>
<polygon fill="#cc0000" stroke="#cc0000" stroke-width="2" points="706.08,-444.24 716.31,-441.49 706.59,-437.26 706.08,-444.24"/>
<text xml:space="preserve" text-anchor="middle" x="550" y="-447.4" font-family="Helvetica,sans-Serif" font-size="8.00">empty+full</text>
<text xml:space="preserve" text-anchor="middle" x="550" y="-437.65" font-family="Helvetica,sans-Serif" font-size="8.00">conflict</text>
</g>
<!-- e_escal&#45;&gt;ERROR -->
<g id="edge2" class="edge">
<title>e_escal&#45;&gt;ERROR</title>
<path fill="none" stroke="#cc0000" d="M593.74,-477.67C627.75,-470.25 674.98,-459.93 708.19,-452.69"/>
<polygon fill="#cc0000" stroke="#cc0000" points="708.8,-456.13 717.83,-450.58 707.31,-449.29 708.8,-456.13"/>
<text xml:space="preserve" text-anchor="middle" x="660.17" y="-479.97" font-family="Helvetica,sans-Serif" font-size="8.00">empty_safety</text>
<text xml:space="preserve" text-anchor="middle" x="660.17" y="-470.22" font-family="Helvetica,sans-Serif" font-size="8.00">_timeout</text>
</g>
<!-- em_drift&#45;&gt;e_safety -->
<g id="edge7" class="edge">
<title>em_drift&#45;&gt;e_safety</title>
<path fill="none" stroke="black" stroke-dasharray="5,2" d="M289.39,-160.35C275.56,-171.63 258.95,-187.13 247.85,-204 208.49,-263.81 172.55,-291.5 199.71,-357.75 215.36,-395.91 250.24,-428.26 277.43,-449.06"/>
<polygon fill="black" stroke="black" points="274.99,-451.61 285.11,-454.77 279.17,-445.99 274.99,-451.61"/>
<text xml:space="preserve" text-anchor="middle" x="192.47" y="-350.15" font-family="Helvetica,sans-Serif" font-size="8.00">empty</text>
<text xml:space="preserve" text-anchor="middle" x="192.47" y="-340.4" font-family="Helvetica,sans-Serif" font-size="8.00">triggers</text>
</g>
<!-- em_drift&#45;&gt;m_neutral -->
<g id="edge8" class="edge">
<title>em_drift&#45;&gt;m_neutral</title>
<path fill="none" stroke="black" stroke-dasharray="5,2" d="M370.36,-132.22C399.29,-129.59 434.62,-130.45 463.45,-143.5 494.18,-157.42 518.51,-188.33 533.25,-211.24"/>
<polygon fill="black" stroke="black" points="530.13,-212.84 538.36,-219.51 536.08,-209.16 530.13,-212.84"/>
<text xml:space="preserve" text-anchor="middle" x="436.07" y="-155.4" font-family="Helvetica,sans-Serif" font-size="8.00">middle</text>
<text xml:space="preserve" text-anchor="middle" x="436.07" y="-145.65" font-family="Helvetica,sans-Serif" font-size="8.00">triggers</text>
</g>
<!-- m_neutral&#45;&gt;em_drift -->
<g id="edge9" class="edge">
<title>m_neutral&#45;&gt;em_drift</title>
<path fill="none" stroke="black" stroke-dasharray="5,2" d="M513.13,-220.68C497.95,-213.17 479.99,-204.59 463.45,-197.5 436.04,-185.75 405.24,-173.99 378.85,-164.33"/>
<polygon fill="black" stroke="black" points="380.23,-161.11 369.63,-160.99 377.84,-167.69 380.23,-161.11"/>
<text xml:space="preserve" text-anchor="middle" x="436.07" y="-209.4" font-family="Helvetica,sans-Serif" font-size="8.00">middle</text>
<text xml:space="preserve" text-anchor="middle" x="436.07" y="-199.65" font-family="Helvetica,sans-Serif" font-size="8.00">clears</text>
</g>
<!-- fm_drift -->
<g id="node5" class="node">
<title>fm_drift</title>
<polygon fill="#fce5cd" stroke="black" points="368.2,-343 260.35,-343 260.35,-307 368.2,-307 368.2,-343"/>
<text xml:space="preserve" text-anchor="start" x="292.9" y="-325.5" font-family="Helvetica,sans-Serif" font-size="10.00">SYNCED</text>
<text xml:space="preserve" text-anchor="start" x="271.15" y="-317.4" font-family="Helvetica,sans-Serif" font-size="8.00">mult 0.98 → slight LESS</text>
</g>
<!-- m_neutral&#45;&gt;fm_drift -->
<g id="edge10" class="edge">
<title>m_neutral&#45;&gt;fm_drift</title>
<path fill="none" stroke="black" stroke-dasharray="5,2" d="M499.05,-255.04C472.14,-263.91 438.44,-275.35 408.7,-286.5 395.74,-291.36 381.89,-296.88 368.94,-302.19"/>
<polygon fill="black" stroke="black" points="367.61,-298.96 359.7,-306.01 370.28,-305.43 367.61,-298.96"/>
<text xml:space="preserve" text-anchor="middle" x="436.07" y="-298.4" font-family="Helvetica,sans-Serif" font-size="8.00">full</text>
<text xml:space="preserve" text-anchor="middle" x="436.07" y="-288.65" font-family="Helvetica,sans-Serif" font-size="8.00">triggers</text>
</g>
<!-- fm_drift&#45;&gt;m_neutral -->
<g id="edge11" class="edge">
<title>fm_drift&#45;&gt;m_neutral</title>
<path fill="none" stroke="black" stroke-dasharray="5,2" d="M368.53,-326.53C397.59,-325.6 433.62,-321.5 463.45,-309 486.96,-299.15 509.11,-280.67 524.98,-265.18"/>
<polygon fill="black" stroke="black" points="527.06,-268.05 531.61,-258.48 522.09,-263.12 527.06,-268.05"/>
<text xml:space="preserve" text-anchor="middle" x="436.07" y="-334.51" font-family="Helvetica,sans-Serif" font-size="8.00">full</text>
<text xml:space="preserve" text-anchor="middle" x="436.07" y="-324.76" font-family="Helvetica,sans-Serif" font-size="8.00">clears</text>
</g>
<!-- f_safety -->
<g id="node6" class="node">
<title>f_safety</title>
<polygon fill="#f4cccc" stroke="black" points="129.1,-65 16,-65 16,-29 129.1,-29 129.1,-65"/>
<text xml:space="preserve" text-anchor="start" x="51.17" y="-47.5" font-family="Helvetica,sans-Serif" font-size="10.00">SYNCED</text>
<text xml:space="preserve" text-anchor="start" x="26.8" y="-39.4" font-family="Helvetica,sans-Serif" font-size="8.00">mult 0.95 → deliver LESS</text>
</g>
<!-- fm_drift&#45;&gt;f_safety -->
<g id="edge12" class="edge">
<title>fm_drift&#45;&gt;f_safety</title>
<path fill="none" stroke="black" stroke-dasharray="5,2" d="M285.94,-343.37C253.94,-362.35 200.81,-385.73 165.1,-359 119.07,-324.54 88.33,-147.35 77.69,-76.42"/>
<polygon fill="black" stroke="black" points="81.18,-76.1 76.26,-66.72 74.25,-77.12 81.18,-76.1"/>
<text xml:space="preserve" text-anchor="middle" x="192.47" y="-382.95" font-family="Helvetica,sans-Serif" font-size="8.00">middle</text>
<text xml:space="preserve" text-anchor="middle" x="192.47" y="-373.2" font-family="Helvetica,sans-Serif" font-size="8.00">clears</text>
</g>
<!-- f_safety&#45;&gt;m_neutral -->
<g id="edge14" class="edge">
<title>f_safety&#45;&gt;m_neutral</title>
<path fill="none" stroke="black" stroke-dasharray="5,2" d="M86.9,-65.37C113.22,-100 175.6,-174.37 247.85,-207 325.21,-241.94 424.77,-245.54 487.76,-243.43"/>
<polygon fill="black" stroke="black" points="487.72,-246.93 497.58,-243.04 487.44,-239.94 487.72,-246.93"/>
<text xml:space="preserve" text-anchor="middle" x="314.27" y="-251.33" font-family="Helvetica,sans-Serif" font-size="8.00">full clears +</text>
<text xml:space="preserve" text-anchor="middle" x="314.27" y="-241.58" font-family="Helvetica,sans-Serif" font-size="8.00">middle triggers</text>
</g>
<!-- f_safety&#45;&gt;fm_drift -->
<g id="edge13" class="edge">
<title>f_safety&#45;&gt;fm_drift</title>
<path fill="none" stroke="black" stroke-dasharray="5,2" d="M77.01,-65.38C85.37,-105.08 110.14,-199.76 165.1,-256 172.37,-263.44 219.88,-284.97 259.18,-302.03"/>
<polygon fill="black" stroke="black" points="257.78,-305.24 268.35,-305.99 260.56,-298.81 257.78,-305.24"/>
<text xml:space="preserve" text-anchor="middle" x="192.47" y="-295.91" font-family="Helvetica,sans-Serif" font-size="8.00">middle</text>
<text xml:space="preserve" text-anchor="middle" x="192.47" y="-286.16" font-family="Helvetica,sans-Serif" font-size="8.00">triggers</text>
</g>
<!-- f_escal -->
<g id="node7" class="node">
<title>f_escal</title>
<polygon fill="#e06666" stroke="black" points="357.7,-63 270.85,-63 270.85,-27 357.7,-27 357.7,-63"/>
<text xml:space="preserve" text-anchor="start" x="292.9" y="-45.5" font-family="Helvetica,sans-Serif" font-size="10.00">SYNCED</text>
<text xml:space="preserve" text-anchor="start" x="281.65" y="-37.4" font-family="Helvetica,sans-Serif" font-size="8.00">ESCALATED ×1.5</text>
</g>
<!-- f_safety&#45;&gt;f_escal -->
<g id="edge3" class="edge">
<title>f_safety&#45;&gt;f_escal</title>
<path fill="none" stroke="black" d="M129.45,-46.53C168.61,-46.21 220.66,-45.77 259.37,-45.45"/>
<polygon fill="black" stroke="black" points="258.94,-48.95 268.91,-45.37 258.88,-41.95 258.94,-48.95"/>
<text xml:space="preserve" text-anchor="middle" x="192.47" y="-58.08" font-family="Helvetica,sans-Serif" font-size="8.00">fault_escalation</text>
<text xml:space="preserve" text-anchor="middle" x="192.47" y="-48.33" font-family="Helvetica,sans-Serif" font-size="8.00">_time elapsed</text>
</g>
<!-- f_retract -->
<g id="node8" class="node">
<title>f_retract</title>
<polygon fill="#cc0000" stroke="black" points="598.67,-64 501.32,-64 501.32,-28 598.67,-28 598.67,-64"/>
<text xml:space="preserve" text-anchor="start" x="526" y="-46.5" font-family="Helvetica,sans-Serif" font-size="10.00" fill="white">RETRACT</text>
<text xml:space="preserve" text-anchor="start" x="512.12" y="-38.4" font-family="Helvetica,sans-Serif" font-size="8.00" fill="white">unsync + force_move</text>
</g>
<!-- f_escal&#45;&gt;f_retract -->
<g id="edge4" class="edge">
<title>f_escal&#45;&gt;f_retract</title>
<path fill="none" stroke="#cc0000" d="M358.14,-45.18C395.05,-45.34 448.67,-45.57 489.69,-45.75"/>
<polygon fill="#cc0000" stroke="#cc0000" points="489.64,-49.25 499.66,-45.79 489.67,-42.25 489.64,-49.25"/>
<text xml:space="preserve" text-anchor="middle" x="436.07" y="-57.52" font-family="Helvetica,sans-Serif" font-size="8.00">full_safety</text>
<text xml:space="preserve" text-anchor="middle" x="436.07" y="-47.77" font-family="Helvetica,sans-Serif" font-size="8.00">_timeout</text>
</g>
<!-- f_retract&#45;&gt;m_neutral -->
<g id="edge15" class="edge">
<title>f_retract&#45;&gt;m_neutral</title>
<path fill="none" stroke="black" stroke-dasharray="5,2" d="M550,-64.16C550,-97.49 550,-168.74 550,-209.24"/>
<polygon fill="black" stroke="black" points="546.5,-209.24 550,-219.24 553.5,-209.24 546.5,-209.24"/>
<text xml:space="preserve" text-anchor="middle" x="537.25" y="-144.65" font-family="Helvetica,sans-Serif" font-size="8.00">re&#45;sync after</text>
<text xml:space="preserve" text-anchor="middle" x="537.25" y="-134.9" font-family="Helvetica,sans-Serif" font-size="8.00">retract</text>
</g>
</g>
</svg>
