<?xml version="1.0" encoding="UTF-8" standalone="no"?>
<!DOCTYPE svg PUBLIC "-//W3C//DTD SVG 1.1//EN"
 "http://www.w3.org/Graphics/SVG/1.1/DTD/svg11.dtd">
<!-- Generated by graphviz version 13.1.2 (20250808.2320)
 -->
<!-- Title: buffer_state_machine Pages: 1 -->
<svg width="812pt" height="657pt"
 viewBox="0.00 0.00 812.00 657.00" xmlns="http://www.w3.org/2000/svg" xmlns:xlink="http://www.w3.org/1999/xlink">
<g id="graph0" class="graph" transform="scale(1 1) rotate(0) translate(4 653)">
<title>buffer_state_machine</title>
<polygon fill="white" stroke="none" points="-4,4 -4,-653 807.9,-653 807.9,4 -4,4"/>
<g id="clust1" class="cluster">
<title>cluster_empty</title>
<path fill="#eaf5e6" stroke="#b6d7a8" stroke-width="2" d="M20,-490C20,-490 778.27,-490 778.27,-490 784.27,-490 790.27,-496 790.27,-502 790.27,-502 790.27,-629 790.27,-629 790.27,-635 784.27,-641 778.27,-641 778.27,-641 20,-641 20,-641 14,-641 8,-635 8,-629 8,-629 8,-502 8,-502 8,-496 14,-490 20,-490"/>
<text xml:space="preserve" text-anchor="middle" x="399.14" y="-626.55" font-family="Helvetica,sans-Serif" font-size="11.00">EMPTY</text>
</g>
<g id="clust2" class="cluster">
<title>cluster_empty_middle</title>
<path fill="#e8f0fe" stroke="#a4c2f4" stroke-width="2" d="M477.95,-264C477.95,-264 783.9,-264 783.9,-264 789.9,-264 795.9,-270 795.9,-276 795.9,-276 795.9,-392 795.9,-392 795.9,-398 789.9,-404 783.9,-404 783.9,-404 477.95,-404 477.95,-404 471.95,-404 465.95,-398 465.95,-392 465.95,-392 465.95,-276 465.95,-276 465.95,-270 471.95,-264 477.95,-264"/>
<text xml:space="preserve" text-anchor="middle" x="630.92" y="-389.55" font-family="Helvetica,sans-Serif" font-size="11.00">EMPTY_MIDDLE</text>
</g>
<g id="clust3" class="cluster">
<title>cluster_middle</title>
<path fill="#eaf5e6" stroke="#b6d7a8" stroke-width="2" d="M479.07,-136C479.07,-136 758.85,-136 758.85,-136 764.85,-136 770.85,-142 770.85,-148 770.85,-148 770.85,-244 770.85,-244 770.85,-250 764.85,-256 758.85,-256 758.85,-256 479.07,-256 479.07,-256 473.07,-256 467.07,-250 467.07,-244 467.07,-244 467.07,-148 467.07,-148 467.07,-142 473.07,-136 479.07,-136"/>
<text xml:space="preserve" text-anchor="middle" x="618.96" y="-241.55" font-family="Helvetica,sans-Serif" font-size="11.00">MIDDLE</text>
</g>
<g id="clust4" class="cluster">
<title>cluster_full_middle</title>
<path fill="#fef3e8" stroke="#f9cb9c" stroke-width="2" d="M485.82,-8C485.82,-8 758.85,-8 758.85,-8 764.85,-8 770.85,-14 770.85,-20 770.85,-20 770.85,-116 770.85,-116 770.85,-122 764.85,-128 758.85,-128 758.85,-128 485.82,-128 485.82,-128 479.82,-128 473.82,-122 473.82,-116 473.82,-116 473.82,-20 473.82,-20 473.82,-14 479.82,-8 485.82,-8"/>
<text xml:space="preserve" text-anchor="middle" x="622.34" y="-113.55" font-family="Helvetica,sans-Serif" font-size="11.00">FULL_MIDDLE</text>
</g>
<g id="clust5" class="cluster">
<title>cluster_full</title>
<path fill="#fce8e8" stroke="#ea9999" stroke-width="2" d="M34.25,-92C34.25,-92 345.45,-92 345.45,-92 351.45,-92 357.45,-98 357.45,-104 357.45,-104 357.45,-254 357.45,-254 357.45,-260 351.45,-266 345.45,-266 345.45,-266 34.25,-266 34.25,-266 28.25,-266 22.25,-260 22.25,-254 22.25,-254 22.25,-104 22.25,-104 22.25,-98 28.25,-92 34.25,-92"/>
<text xml:space="preserve" text-anchor="middle" x="189.85" y="-251.55" font-family="Helvetica,sans-Serif" font-size="11.00">FULL</text>
</g>
<!-- e_fill -->
<g id="node1" class="node">
<title>e_fill</title>
<polygon fill="#d9ead3" stroke="black" points="117.1,-587 16,-587 16,-551 117.1,-551 117.1,-587"/>
<text xml:space="preserve" text-anchor="start" x="41.05" y="-569.5" font-family="Helvetica,sans-Serif" font-size="10.00">FORWARD</text>
<text xml:space="preserve" text-anchor="start" x="26.8" y="-561.4" font-family="Helvetica,sans-Serif" font-size="8.00">initial fill @ speed_rpm</text>
</g>
<!-- e_fwd -->
<g id="node2" class="node">
<title>e_fwd</title>
<polygon fill="#d9ead3" stroke="black" points="336.7,-534 264.1,-534 264.1,-498 336.7,-498 336.7,-534"/>
<text xml:space="preserve" text-anchor="start" x="274.9" y="-516.5" font-family="Helvetica,sans-Serif" font-size="10.00">FORWARD</text>
<text xml:space="preserve" text-anchor="start" x="275.65" y="-508.4" font-family="Helvetica,sans-Serif" font-size="8.00">V × correction</text>
</g>
<!-- e_fill&#45;&gt;e_fwd -->
<g id="edge1" class="edge">
<title>e_fill&#45;&gt;e_fwd</title>
<path fill="none" stroke="black" d="M117.57,-557.57C157.68,-548.4 213.54,-535.63 252.73,-526.67"/>
<polygon fill="black" stroke="black" points="253.37,-530.11 262.34,-524.47 251.81,-523.29 253.37,-530.11"/>
<text xml:space="preserve" text-anchor="middle" x="184.22" y="-560.71" font-family="Helvetica,sans-Serif" font-size="8.00">V &gt; 0</text>
<text xml:space="preserve" text-anchor="middle" x="184.22" y="-550.96" font-family="Helvetica,sans-Serif" font-size="8.00">or fill ends</text>
</g>
<!-- e_stop -->
<g id="node4" class="node">
<title>e_stop</title>
<polygon fill="#eeeeee" stroke="black" points="548.42,-553 487.82,-553 487.82,-517 548.42,-517 548.42,-553"/>
<text xml:space="preserve" text-anchor="start" x="504.62" y="-535.5" font-family="Helvetica,sans-Serif" font-size="10.00">STOP</text>
<text xml:space="preserve" text-anchor="start" x="498.62" y="-527.4" font-family="Helvetica,sans-Serif" font-size="8.00">burst delay</text>
</g>
<!-- e_fill&#45;&gt;e_stop -->
<g id="edge2" class="edge">
<title>e_fill&#45;&gt;e_stop</title>
<path fill="none" stroke="black" d="M117.56,-573.51C189.27,-578.75 325.13,-584.11 437.95,-562 450.83,-559.48 464.47,-555.37 476.75,-551.12"/>
<polygon fill="black" stroke="black" points="477.93,-554.41 486.15,-547.72 475.55,-547.83 477.93,-554.41"/>
<text xml:space="preserve" text-anchor="middle" x="300.4" y="-590" font-family="Helvetica,sans-Serif" font-size="8.00">fill</text>
<text xml:space="preserve" text-anchor="middle" x="300.4" y="-580.25" font-family="Helvetica,sans-Serif" font-size="8.00">timeout</text>
</g>
<!-- e_fwd&#45;&gt;e_stop -->
<g id="edge3" class="edge">
<title>e_fwd&#45;&gt;e_stop</title>
<path fill="none" stroke="black" d="M337.02,-519.14C375.25,-522.5 435.89,-527.85 476.09,-531.39"/>
<polygon fill="black" stroke="black" points="475.58,-534.85 485.85,-532.25 476.2,-527.88 475.58,-534.85"/>
<text xml:space="preserve" text-anchor="middle" x="411.7" y="-529.91" font-family="Helvetica,sans-Serif" font-size="8.00">V → 0</text>
</g>
<!-- em_fwd -->
<g id="node5" class="node">
<title>em_fwd</title>
<polygon fill="#cfe2f3" stroke="black" points="562.3,-347 473.95,-347 473.95,-311 562.3,-311 562.3,-347"/>
<text xml:space="preserve" text-anchor="start" x="492.62" y="-329.5" font-family="Helvetica,sans-Serif" font-size="10.00">FORWARD</text>
<text xml:space="preserve" text-anchor="start" x="484.75" y="-321.4" font-family="Helvetica,sans-Serif" font-size="8.00">held V × correction</text>
</g>
<!-- e_fwd&#45;&gt;em_fwd -->
<g id="edge18" class="edge">
<title>e_fwd&#45;&gt;em_fwd</title>
<path fill="none" stroke="black" stroke-dasharray="5,2" d="M337.12,-503.12C366.52,-491.27 408.07,-471.51 437.95,-445 466.2,-419.94 489.25,-382.74 503.05,-357.27"/>
<polygon fill="black" stroke="black" points="506.11,-358.96 507.68,-348.48 499.92,-355.7 506.11,-358.96"/>
<text xml:space="preserve" text-anchor="middle" x="411.7" y="-492.26" font-family="Helvetica,sans-Serif" font-size="8.00">empty</text>
<text xml:space="preserve" text-anchor="middle" x="411.7" y="-482.51" font-family="Helvetica,sans-Serif" font-size="8.00">clears</text>
</g>
<!-- m_fwd -->
<g id="node7" class="node">
<title>m_fwd</title>
<polygon fill="#d9ead3" stroke="black" points="561.17,-226 475.07,-226 475.07,-190 561.17,-190 561.17,-226"/>
<text xml:space="preserve" text-anchor="start" x="492.62" y="-208.5" font-family="Helvetica,sans-Serif" font-size="10.00">FORWARD</text>
<text xml:space="preserve" text-anchor="start" x="485.87" y="-200.4" font-family="Helvetica,sans-Serif" font-size="8.00">V × velocity_factor</text>
</g>
<!-- e_fwd&#45;&gt;m_fwd -->
<g id="edge19" class="edge">
<title>e_fwd&#45;&gt;m_fwd</title>
<path fill="none" stroke="black" stroke-dasharray="5,2" d="M305.26,-497.54C313.92,-459.84 337.95,-372.8 385.45,-316.5 403.3,-295.34 416.14,-300.04 437.95,-283 440.77,-280.8 467.79,-255.11 489.5,-234.41"/>
<polygon fill="black" stroke="black" points="491.88,-236.97 496.7,-227.54 487.05,-231.91 491.88,-236.97"/>
<text xml:space="preserve" text-anchor="middle" x="411.7" y="-328.4" font-family="Helvetica,sans-Serif" font-size="8.00">middle</text>
<text xml:space="preserve" text-anchor="middle" x="411.7" y="-318.65" font-family="Helvetica,sans-Serif" font-size="8.00">triggers</text>
</g>
<!-- e_burst -->
<g id="node3" class="node">
<title>e_burst</title>
<polygon fill="#d9ead3" stroke="black" points="782.27,-580 689.42,-580 689.42,-544 782.27,-544 782.27,-580"/>
<text xml:space="preserve" text-anchor="start" x="710.35" y="-562.5" font-family="Helvetica,sans-Serif" font-size="10.00">FORWARD</text>
<text xml:space="preserve" text-anchor="start" x="700.22" y="-554.4" font-family="Helvetica,sans-Serif" font-size="8.00">burst @ speed_rpm</text>
</g>
<!-- e_burst&#45;&gt;e_stop -->
<g id="edge6" class="edge">
<title>e_burst&#45;&gt;e_stop</title>
<path fill="none" stroke="black" d="M689.09,-562.44C662.46,-562.09 628.33,-560.59 598.3,-556 585.6,-554.06 572,-550.87 559.72,-547.56"/>
<polygon fill="black" stroke="black" points="560.91,-544.26 550.34,-544.93 559.02,-551 560.91,-544.26"/>
<text xml:space="preserve" text-anchor="middle" x="623.05" y="-572.82" font-family="Helvetica,sans-Serif" font-size="8.00">burst time</text>
<text xml:space="preserve" text-anchor="middle" x="623.05" y="-563.07" font-family="Helvetica,sans-Serif" font-size="8.00">expired</text>
</g>
<!-- e_stop&#45;&gt;e_fwd -->
<g id="edge4" class="edge">
<title>e_stop&#45;&gt;e_fwd</title>
<path fill="none" stroke="black" d="M487.41,-540.44C460.6,-544.48 420.18,-548.44 385.45,-543 372.93,-541.04 359.73,-537.53 347.59,-533.67"/>
<polygon fill="black" stroke="black" points="348.83,-530.39 338.23,-530.55 346.61,-537.03 348.83,-530.39"/>
<text xml:space="preserve" text-anchor="middle" x="411.7" y="-547.8" font-family="Helvetica,sans-Serif" font-size="8.00">V &gt; 0</text>
</g>
<!-- e_stop&#45;&gt;e_burst -->
<g id="edge5" class="edge">
<title>e_stop&#45;&gt;e_burst</title>
<path fill="none" stroke="black" d="M548.72,-531.83C574.93,-529.69 614.16,-528.13 647.8,-533.5 657.83,-535.1 668.28,-537.68 678.31,-540.64"/>
<polygon fill="black" stroke="black" points="676.96,-543.89 687.55,-543.53 679.05,-537.21 676.96,-543.89"/>
<text xml:space="preserve" text-anchor="middle" x="623.05" y="-545.4" font-family="Helvetica,sans-Serif" font-size="8.00">burst delay</text>
<text xml:space="preserve" text-anchor="middle" x="623.05" y="-535.65" font-family="Helvetica,sans-Serif" font-size="8.00">elapsed</text>
</g>
<!-- ERROR -->
<g id="node14" class="node">
<title>ERROR</title>
<polygon fill="#f4cccc" stroke="black" points="765.02,-465 706.67,-465 706.67,-429 765.02,-429 765.02,-465"/>
<text xml:space="preserve" text-anchor="middle" x="735.85" y="-443.5" font-family="Helvetica,sans-Serif" font-size="10.00">ERROR</text>
</g>
<!-- e_stop&#45;&gt;ERROR -->
<g id="edge7" class="edge">
<title>e_stop&#45;&gt;ERROR</title>
<path fill="none" stroke="#cc0000" d="M548.67,-522.95C586.88,-507.36 653.56,-480.16 695.88,-462.9"/>
<polygon fill="#cc0000" stroke="#cc0000" points="697.01,-466.22 704.95,-459.2 694.37,-459.73 697.01,-466.22"/>
<text xml:space="preserve" text-anchor="middle" x="623.05" y="-513.37" font-family="Helvetica,sans-Serif" font-size="8.00">burst</text>
<text xml:space="preserve" text-anchor="middle" x="623.05" y="-503.62" font-family="Helvetica,sans-Serif" font-size="8.00">exhausted</text>
</g>
<!-- em_fwd&#45;&gt;e_fwd -->
<g id="edge20" class="edge">
<title>em_fwd&#45;&gt;e_fwd</title>
<path fill="none" stroke="black" stroke-dasharray="5,2" d="M473.58,-333.69C445.9,-338.55 410.66,-348.44 385.45,-368.5 346.67,-399.36 322.57,-453.33 310.6,-486.73"/>
<polygon fill="black" stroke="black" points="307.29,-485.58 307.35,-496.18 313.91,-487.86 307.29,-485.58"/>
<text xml:space="preserve" text-anchor="middle" x="411.7" y="-380.4" font-family="Helvetica,sans-Serif" font-size="8.00">empty</text>
<text xml:space="preserve" text-anchor="middle" x="411.7" y="-370.65" font-family="Helvetica,sans-Serif" font-size="8.00">triggers</text>
</g>
<!-- em_base -->
<g id="node6" class="node">
<title>em_base</title>
<polygon fill="#cfe2f3" stroke="black" points="787.9,-346 683.8,-346 683.8,-310 787.9,-310 787.9,-346"/>
<text xml:space="preserve" text-anchor="start" x="710.35" y="-328.5" font-family="Helvetica,sans-Serif" font-size="10.00">FORWARD</text>
<text xml:space="preserve" text-anchor="start" x="694.6" y="-320.4" font-family="Helvetica,sans-Serif" font-size="8.00">speed_rpm (no held V)</text>
</g>
<!-- em_fwd&#45;&gt;em_base -->
<g id="edge8" class="edge">
<title>em_fwd&#45;&gt;em_base</title>
<path fill="none" stroke="black" stroke-dasharray="1,5" d="M560.25,-310.52C572.27,-305.99 585.6,-301.79 598.3,-299.5 619.95,-295.6 626.07,-296.03 647.8,-299.5 657.28,-301.01 667.13,-303.4 676.65,-306.16"/>
<polygon fill="black" stroke="black" points="675.6,-309.5 686.18,-309.1 677.66,-302.81 675.6,-309.5"/>
<text xml:space="preserve" text-anchor="middle" x="623.05" y="-311.4" font-family="Helvetica,sans-Serif" font-size="8.00">held V</text>
<text xml:space="preserve" text-anchor="middle" x="623.05" y="-301.65" font-family="Helvetica,sans-Serif" font-size="8.00">decays</text>
</g>
<!-- em_fwd&#45;&gt;m_fwd -->
<g id="edge21" class="edge">
<title>em_fwd&#45;&gt;m_fwd</title>
<path fill="none" stroke="black" stroke-dasharray="5,2" d="M518.12,-310.85C518.12,-291.54 518.12,-260.71 518.12,-237.83"/>
<polygon fill="black" stroke="black" points="521.63,-237.89 518.13,-227.89 514.63,-237.89 521.63,-237.89"/>
<text xml:space="preserve" text-anchor="middle" x="505.37" y="-270.65" font-family="Helvetica,sans-Serif" font-size="8.00">middle</text>
<text xml:space="preserve" text-anchor="middle" x="505.37" y="-260.9" font-family="Helvetica,sans-Serif" font-size="8.00">triggers</text>
</g>
<!-- em_base&#45;&gt;em_fwd -->
<g id="edge9" class="edge">
<title>em_base&#45;&gt;em_fwd</title>
<path fill="none" stroke="black" stroke-dasharray="1,5" d="M683.67,-328.24C650.75,-328.39 607.97,-328.59 574.28,-328.74"/>
<polygon fill="black" stroke="black" points="574.28,-325.24 564.29,-328.79 574.31,-332.24 574.28,-325.24"/>
<text xml:space="preserve" text-anchor="middle" x="623.05" y="-340.52" font-family="Helvetica,sans-Serif" font-size="8.00">new extrusion</text>
<text xml:space="preserve" text-anchor="middle" x="623.05" y="-330.77" font-family="Helvetica,sans-Serif" font-size="8.00">captures V</text>
</g>
<!-- m_fwd&#45;&gt;em_fwd -->
<g id="edge22" class="edge">
<title>m_fwd&#45;&gt;em_fwd</title>
<path fill="none" stroke="black" stroke-dasharray="5,2" d="M518.12,-226.38C518.12,-245.77 518.12,-276.62 518.12,-299.43"/>
<polygon fill="black" stroke="black" points="514.63,-299.33 518.13,-309.33 521.63,-299.33 514.63,-299.33"/>
<text xml:space="preserve" text-anchor="middle" x="505.37" y="-270.65" font-family="Helvetica,sans-Serif" font-size="8.00">middle</text>
<text xml:space="preserve" text-anchor="middle" x="505.37" y="-260.9" font-family="Helvetica,sans-Serif" font-size="8.00">clears</text>
</g>
<!-- m_stop -->
<g id="node8" class="node">
<title>m_stop</title>
<polygon fill="#eeeeee" stroke="black" points="762.85,-208 708.85,-208 708.85,-172 762.85,-172 762.85,-208"/>
<text xml:space="preserve" text-anchor="start" x="722.35" y="-190.5" font-family="Helvetica,sans-Serif" font-size="10.00">STOP</text>
<text xml:space="preserve" text-anchor="start" x="726.47" y="-182.4" font-family="Helvetica,sans-Serif" font-size="8.00">V = 0</text>
</g>
<!-- m_fwd&#45;&gt;m_stop -->
<g id="edge10" class="edge">
<title>m_fwd&#45;&gt;m_stop</title>
<path fill="none" stroke="black" d="M552.78,-189.55C566.48,-183.04 582.73,-176.52 598.3,-173.25 631.43,-166.3 669.74,-172.18 697.33,-178.82"/>
<polygon fill="black" stroke="black" points="696.43,-182.2 706.99,-181.29 698.17,-175.42 696.43,-182.2"/>
<text xml:space="preserve" text-anchor="middle" x="623.05" y="-175.4" font-family="Helvetica,sans-Serif" font-size="8.00">V → 0</text>
</g>
<!-- fm_fwd -->
<g id="node9" class="node">
<title>fm_fwd</title>
<polygon fill="#fce5cd" stroke="black" points="554.42,-98 481.82,-98 481.82,-62 554.42,-62 554.42,-98"/>
<text xml:space="preserve" text-anchor="start" x="492.62" y="-80.5" font-family="Helvetica,sans-Serif" font-size="10.00">FORWARD</text>
<text xml:space="preserve" text-anchor="start" x="493.37" y="-72.4" font-family="Helvetica,sans-Serif" font-size="8.00">V × slowdown</text>
</g>
<!-- m_fwd&#45;&gt;fm_fwd -->
<g id="edge23" class="edge">
<title>m_fwd&#45;&gt;fm_fwd</title>
<path fill="none" stroke="black" stroke-dasharray="5,2" d="M518.12,-189.69C518.12,-168.8 518.12,-134.32 518.12,-109.59"/>
<polygon fill="black" stroke="black" points="521.63,-109.85 518.13,-99.85 514.63,-109.85 521.63,-109.85"/>
<text xml:space="preserve" text-anchor="middle" x="505.37" y="-146.15" font-family="Helvetica,sans-Serif" font-size="8.00">full</text>
<text xml:space="preserve" text-anchor="middle" x="505.37" y="-136.4" font-family="Helvetica,sans-Serif" font-size="8.00">triggers</text>
</g>
<!-- m_stop&#45;&gt;m_fwd -->
<g id="edge11" class="edge">
<title>m_stop&#45;&gt;m_fwd</title>
<path fill="none" stroke="black" d="M708.54,-192.2C675,-194.99 616.17,-199.9 572.95,-203.51"/>
<polygon fill="black" stroke="black" points="572.67,-200.02 563,-204.34 573.25,-207 572.67,-200.02"/>
<text xml:space="preserve" text-anchor="middle" x="623.05" y="-203.29" font-family="Helvetica,sans-Serif" font-size="8.00">V &gt; 0</text>
</g>
<!-- fm_fwd&#45;&gt;m_fwd -->
<g id="edge24" class="edge">
<title>fm_fwd&#45;&gt;m_fwd</title>
<path fill="none" stroke="black" stroke-dasharray="5,2" d="M518.12,-98.34C518.12,-119.25 518.12,-153.73 518.12,-178.45"/>
<polygon fill="black" stroke="black" points="514.63,-178.18 518.13,-188.18 521.63,-178.18 514.63,-178.18"/>
<text xml:space="preserve" text-anchor="middle" x="505.37" y="-146.15" font-family="Helvetica,sans-Serif" font-size="8.00">full</text>
<text xml:space="preserve" text-anchor="middle" x="505.37" y="-136.4" font-family="Helvetica,sans-Serif" font-size="8.00">clears</text>
</g>
<!-- fm_stop -->
<g id="node10" class="node">
<title>fm_stop</title>
<polygon fill="#eeeeee" stroke="black" points="762.85,-80 708.85,-80 708.85,-44 762.85,-44 762.85,-80"/>
<text xml:space="preserve" text-anchor="start" x="722.35" y="-62.5" font-family="Helvetica,sans-Serif" font-size="10.00">STOP</text>
<text xml:space="preserve" text-anchor="start" x="726.47" y="-54.4" font-family="Helvetica,sans-Serif" font-size="8.00">V = 0</text>
</g>
<!-- fm_fwd&#45;&gt;fm_stop -->
<g id="edge12" class="edge">
<title>fm_fwd&#45;&gt;fm_stop</title>
<path fill="none" stroke="black" d="M552.78,-61.55C566.48,-55.04 582.73,-48.52 598.3,-45.25 631.43,-38.3 669.74,-44.18 697.33,-50.82"/>
<polygon fill="black" stroke="black" points="696.43,-54.2 706.99,-53.29 698.17,-47.42 696.43,-54.2"/>
<text xml:space="preserve" text-anchor="middle" x="623.05" y="-47.4" font-family="Helvetica,sans-Serif" font-size="8.00">V → 0</text>
</g>
<!-- f_fwd -->
<g id="node11" class="node">
<title>f_fwd</title>
<polygon fill="#fce5cd" stroke="black" points="102.85,-191 30.25,-191 30.25,-155 102.85,-155 102.85,-191"/>
<text xml:space="preserve" text-anchor="start" x="41.05" y="-173.5" font-family="Helvetica,sans-Serif" font-size="10.00">FORWARD</text>
<text xml:space="preserve" text-anchor="start" x="41.8" y="-165.4" font-family="Helvetica,sans-Serif" font-size="8.00">V × slowdown</text>
</g>
<!-- fm_fwd&#45;&gt;f_fwd -->
<g id="edge25" class="edge">
<title>fm_fwd&#45;&gt;f_fwd</title>
<path fill="none" stroke="black" stroke-dasharray="5,2" d="M481.42,-77.27C414.32,-73.52 266.01,-71.78 153.1,-118 134.43,-125.64 115.38,-137.42 100.01,-148.12"/>
<polygon fill="black" stroke="black" points="98.28,-145.06 92.18,-153.72 102.35,-150.75 98.28,-145.06"/>
<text xml:space="preserve" text-anchor="middle" x="300.4" y="-101.25" font-family="Helvetica,sans-Serif" font-size="8.00">middle</text>
<text xml:space="preserve" text-anchor="middle" x="300.4" y="-91.5" font-family="Helvetica,sans-Serif" font-size="8.00">clears</text>
</g>
<!-- fm_stop&#45;&gt;fm_fwd -->
<g id="edge13" class="edge">
<title>fm_stop&#45;&gt;fm_fwd</title>
<path fill="none" stroke="black" d="M708.37,-64.21C673.01,-67.16 609.78,-72.44 566.2,-76.07"/>
<polygon fill="black" stroke="black" points="565.93,-72.58 556.26,-76.9 566.51,-79.56 565.93,-72.58"/>
<text xml:space="preserve" text-anchor="middle" x="623.05" y="-75.29" font-family="Helvetica,sans-Serif" font-size="8.00">V &gt; 0</text>
</g>
<!-- f_stop -->
<g id="node12" class="node">
<title>f_stop</title>
<polygon fill="#eeeeee" stroke="black" points="327.4,-167 273.4,-167 273.4,-131 327.4,-131 327.4,-167"/>
<text xml:space="preserve" text-anchor="start" x="286.9" y="-149.5" font-family="Helvetica,sans-Serif" font-size="10.00">STOP</text>
<text xml:space="preserve" text-anchor="start" x="291.02" y="-141.4" font-family="Helvetica,sans-Serif" font-size="8.00">V = 0</text>
</g>
<!-- f_fwd&#45;&gt;f_stop -->
<g id="edge14" class="edge">
<title>f_fwd&#45;&gt;f_stop</title>
<path fill="none" stroke="black" d="M95.14,-154.65C111.29,-145.02 132.5,-134.21 153.1,-129.25 189.67,-120.44 232.39,-128.22 262.19,-136.47"/>
<polygon fill="black" stroke="black" points="260.9,-139.74 271.48,-139.19 262.87,-133.02 260.9,-139.74"/>
<text xml:space="preserve" text-anchor="middle" x="184.22" y="-131.4" font-family="Helvetica,sans-Serif" font-size="8.00">V → 0</text>
</g>
<!-- f_back -->
<g id="node13" class="node">
<title>f_back</title>
<polygon fill="#f4cccc" stroke="black" points="349.45,-233 251.35,-233 251.35,-197 349.45,-197 349.45,-233"/>
<text xml:space="preserve" text-anchor="start" x="286.52" y="-215.5" font-family="Helvetica,sans-Serif" font-size="10.00">BACK</text>
<text xml:space="preserve" text-anchor="start" x="262.15" y="-207.4" font-family="Helvetica,sans-Serif" font-size="8.00">retract @ speed_rpm</text>
</g>
<!-- f_fwd&#45;&gt;f_back -->
<g id="edge16" class="edge">
<title>f_fwd&#45;&gt;f_back</title>
<path fill="none" stroke="black" d="M103.27,-179.47C139.65,-186.06 196.7,-196.4 239.91,-204.22"/>
<polygon fill="black" stroke="black" points="239.19,-207.65 249.65,-205.99 240.44,-200.76 239.19,-207.65"/>
<text xml:space="preserve" text-anchor="middle" x="184.22" y="-210.9" font-family="Helvetica,sans-Serif" font-size="8.00">feed time &gt;=</text>
<text xml:space="preserve" text-anchor="middle" x="184.22" y="-201.15" font-family="Helvetica,sans-Serif" font-size="8.00">full_zone_timeout</text>
</g>
<!-- f_fwd&#45;&gt;ERROR -->
<g id="edge17" class="edge">
<title>f_fwd&#45;&gt;ERROR</title>
<path fill="none" stroke="#cc0000" d="M87.79,-191.22C135.72,-233.34 261.49,-337.92 385.45,-391 490.93,-436.17 628.5,-445.24 695.17,-446.84"/>
<polygon fill="#cc0000" stroke="#cc0000" points="694.81,-450.33 704.88,-447.02 694.95,-443.33 694.81,-450.33"/>
<text xml:space="preserve" text-anchor="middle" x="411.7" y="-421.74" font-family="Helvetica,sans-Serif" font-size="8.00">empty+full</text>
<text xml:space="preserve" text-anchor="middle" x="411.7" y="-411.99" font-family="Helvetica,sans-Serif" font-size="8.00">conflict</text>
</g>
<!-- f_stop&#45;&gt;f_fwd -->
<g id="edge15" class="edge">
<title>f_stop&#45;&gt;f_fwd</title>
<path fill="none" stroke="black" d="M273.02,-151.73C234.5,-155.72 162.28,-163.19 114.54,-168.14"/>
<polygon fill="black" stroke="black" points="114.36,-164.64 104.77,-169.15 115.08,-171.6 114.36,-164.64"/>
<text xml:space="preserve" text-anchor="middle" x="184.22" y="-166.01" font-family="Helvetica,sans-Serif" font-size="8.00">V &gt; 0</text>
</g>
<!-- f_back&#45;&gt;em_fwd -->
<g id="edge28" class="edge">
<title>f_back&#45;&gt;em_fwd</title>
<path fill="none" stroke="black" stroke-dasharray="5,2" d="M349.79,-226.15C376.81,-233.57 410.48,-244.86 437.95,-260.5 457.89,-271.85 477.41,-288.66 492.09,-302.79"/>
<polygon fill="black" stroke="black" points="489.48,-305.13 499.05,-309.67 494.4,-300.15 489.48,-305.13"/>
<text xml:space="preserve" text-anchor="middle" x="411.7" y="-272.4" font-family="Helvetica,sans-Serif" font-size="8.00">full</text>
<text xml:space="preserve" text-anchor="middle" x="411.7" y="-262.65" font-family="Helvetica,sans-Serif" font-size="8.00">clears</text>
</g>
<!-- f_back&#45;&gt;m_fwd -->
<g id="edge27" class="edge">
<title>f_back&#45;&gt;m_fwd</title>
<path fill="none" stroke="black" stroke-dasharray="5,2" d="M349.78,-209.27C361.44,-208.12 373.88,-207.08 385.45,-206.5 408.75,-205.32 414.62,-206.28 437.95,-206.5 446.17,-206.58 454.88,-206.7 463.38,-206.84"/>
<polygon fill="black" stroke="black" points="463.23,-210.34 473.29,-207.02 463.36,-203.34 463.23,-210.34"/>
<text xml:space="preserve" text-anchor="middle" x="411.7" y="-218.4" font-family="Helvetica,sans-Serif" font-size="8.00">full clears +</text>
<text xml:space="preserve" text-anchor="middle" x="411.7" y="-208.65" font-family="Helvetica,sans-Serif" font-size="8.00">middle triggers</text>
</g>
<!-- f_back&#45;&gt;fm_fwd -->
<g id="edge26" class="edge">
<title>f_back&#45;&gt;fm_fwd</title>
<path fill="none" stroke="black" stroke-dasharray="5,2" d="M333.24,-196.53C341.18,-191.84 349.65,-186.78 357.45,-182 399.63,-156.12 447.38,-125.43 479.58,-104.53"/>
<polygon fill="black" stroke="black" points="481.31,-107.58 487.78,-99.19 477.49,-101.71 481.31,-107.58"/>
<text xml:space="preserve" text-anchor="middle" x="411.7" y="-174.78" font-family="Helvetica,sans-Serif" font-size="8.00">middle</text>
<text xml:space="preserve" text-anchor="middle" x="411.7" y="-165.03" font-family="Helvetica,sans-Serif" font-size="8.00">triggers</text>
</g>
</g>
</svg>
